<?xml version="1.0" standalone="no"?>
<!DOCTYPE svg PUBLIC "-//W3C//DTD SVG 20010904//EN"
 "http://www.w3.org/TR/2001/REC-SVG-20010904/DTD/svg10.dtd">
<svg version="1.0" xmlns="http://www.w3.org/2000/svg"
 width="260.000000pt" height="260.000000pt" viewBox="0 0 260.000000 260.000000"
 preserveAspectRatio="xMidYMid meet">
<metadata>
Created by potrace 1.14, written by Peter Selinger 2001-2017
</metadata>
<g transform="translate(0.000000,260.000000) scale(0.100000,-0.100000)"
fill="#000000" stroke="none">
<path d="M822 1626 c-42 -51 -93 -112 -113 -137 -20 -24 -123 -150 -229 -279
-106 -129 -215 -261 -242 -292 -26 -31 -48 -59 -48 -62 0 -3 43 -6 95 -6 l94
0 98 118 c53 64 118 142 143 172 26 30 99 119 163 197 118 145 126 150 119 71
-4 -35 -7 -38 -36 -39 -25 0 -39 -10 -73 -54 -24 -30 -43 -59 -43 -64 0 -7 29
-11 75 -11 64 0 75 -2 76 -17 0 -10 2 -31 2 -48 l2 -30 80 0 80 0 0 249 c0
137 -2 266 -3 286 l-4 38 -79 0 -79 0 -78 -92z"/>
<path d="M1326 1696 c-8 -6 -43 -81 -76 -166 -34 -85 -68 -168 -75 -185 -29
-68 -75 -191 -75 -201 0 -14 148 -15 158 0 4 6 43 101 87 211 l81 200 92 1
c51 0 92 -2 92 -6 0 -4 -10 -30 -21 -59 -23 -55 -22 -55 -122 -51 l-47 2 -24
-55 c-43 -97 -47 -92 84 -93 63 0 126 4 140 10 44 17 88 67 111 125 12 31 31
76 41 100 37 84 33 147 -11 167 -28 13 -418 13 -435 0z"/>
<path d="M1964 1688 c-68 -17 -92 -57 -205 -343 -49 -124 -53 -165 -21 -198
22 -21 30 -22 205 -23 100 -1 187 1 194 3 13 5 67 133 59 141 -3 3 -68 6 -143
7 -76 1 -139 3 -139 4 -1 0 22 61 52 134 30 72 54 133 54 134 0 1 60 2 133 2
72 0 139 0 148 0 11 1 26 24 43 66 14 36 26 69 26 74 0 11 -363 11 -406 -1z"/>
<path d="M1089 1102 c-9 -2 -32 -40 -54 -90 -21 -48 -40 -89 -41 -91 -6 -8
-94 -7 -94 1 0 4 10 30 21 56 41 92 49 110 49 116 0 3 -17 6 -37 6 l-38 0 -44
-100 c-25 -54 -46 -106 -47 -115 -4 -25 30 -35 124 -35 71 0 94 4 111 18 16
13 111 207 111 226 0 6 -44 12 -61 8z"/>
<path d="M611 1074 c-6 -15 -9 -29 -6 -33 3 -3 60 -6 126 -6 l121 -1 14 28 c8
15 14 29 14 33 0 3 -58 5 -128 5 l-129 0 -12 -26z"/>
<path d="M1196 1092 c-6 -9 -85 -189 -97 -219 -8 -21 -6 -23 31 -23 38 0 39 1
66 61 l27 61 22 -59 c21 -56 23 -58 62 -61 l40 -3 28 63 c15 35 37 83 47 108
11 25 25 53 30 63 8 15 4 17 -32 17 -41 0 -42 -1 -69 -61 l-28 -61 -23 61
c-22 60 -23 61 -61 61 -21 0 -40 -4 -43 -8z"/>
<path d="M1451 983 c-28 -65 -51 -121 -51 -125 0 -5 17 -8 38 -8 l37 0 47 109
c26 60 51 116 54 125 5 13 -1 16 -33 16 l-40 0 -52 -117z"/>
<path d="M1604 1043 c-14 -32 -32 -74 -41 -93 -8 -19 -21 -48 -29 -64 -8 -16
-14 -31 -14 -33 0 -1 18 -3 39 -3 39 0 40 2 69 62 l29 62 20 -60 20 -59 42 0
42 0 40 90 c22 50 47 105 54 123 l14 32 -40 0 c-40 0 -41 -1 -67 -60 l-26 -61
-24 61 c-24 59 -25 60 -63 60 -38 0 -40 -2 -65 -57z"/>
<path d="M1944 1088 c-29 -14 -110 -196 -97 -217 8 -12 32 -17 107 -19 l97 -3
30 32 c39 41 38 58 -4 55 -18 -1 -40 -6 -47 -11 -8 -5 -31 -9 -52 -10 -46 -2
-47 7 -14 74 l25 48 55 -2 c31 -1 59 1 64 4 14 10 32 48 25 55 -10 10 -166 6
-189 -6z"/>
<path d="M651 957 c-49 -109 -49 -109 -5 -105 41 3 41 3 88 105 13 29 21 54
18 57 -3 4 -21 6 -39 6 -32 0 -35 -4 -62 -63z"/>
<path d="M2004 979 l-15 -29 65 0 c54 0 67 3 76 19 18 34 11 39 -50 39 -57 -1
-62 -3 -76 -29z"/>
</g>
</svg>
