<svg height="511pt" viewBox="0 -37 511.99867 511" width="511pt" xmlns="http://www.w3.org/2000/svg"><path d="m81.964844 92.5625c2.570312 0 5.144531-.980469 7.105468-2.941406 3.933594-3.875 3.980469-10.207032.105469-14.140625-3.878906-3.9375-10.210937-3.984375-14.144531-.109375-.023438.023437-.113281.113281-.136719.136718l-.015625.019532c-3.90625 3.902344-3.882812 10.214844.023438 14.121094 1.949218 1.945312 4.503906 2.914062 7.0625 2.914062zm0 0"/><path d="m509.84375 223.265625c-7.335938-55.710937-33.164062-108.179687-72.726562-147.742187-48.378907-48.378907-112.703126-75.023438-181.117188-75.023438-53.46875 0-104.664062 16.277344-148.046875 47.070312-4.5 3.195313-5.5625 9.441407-2.363281 13.945313 3.195312 4.503906 9.441406 5.5625 13.941406 2.363281 3.226562-2.289062 6.503906-4.480468 9.820312-6.59375l24.875 43.085938c-10.71875 7.011718-20.796874 15.167968-30.0625 24.4375-9.179687 9.179687-17.339843 19.285156-24.382812 30.09375l-43.082031-24.871094c4.492187-7.085938 9.363281-13.941406 14.609375-20.53125 3.441406-4.320312 2.730468-10.613281-1.589844-14.054688-4.320312-3.441406-10.613281-2.730468-14.054688 1.589844-28.910156 36.300782-47.414062 79.949219-53.507812 126.230469-7.308594 55.503906 4.097656 112.792969 32.101562 161.296875 8.257813 14.371094 23.339844 22.421875 38.832032 22.421875 7.550781 0 15.199218-1.910156 22.199218-5.933594 10.351563-5.949219 17.769532-15.574219 20.882813-27.105469 3.113281-11.527343 1.550781-23.574218-4.40625-33.945312-18.503906-32.046875-25.726563-68.402344-20.890625-105.136719 4.808594-36.523437 21.210938-69.6875 47.433594-95.910156 31.433594-31.4375 73.230468-48.746094 117.691406-48.746094 10.238281 0 20.332031.929688 30.191406 2.722657l-39.035156 103.195312c-12.988281 1.886719-25.019531 7.871094-34.414062 17.261719-11.554688 11.554687-17.917969 26.917969-17.917969 43.257812 0 16.339844 6.363281 31.703125 17.921875 43.253907 11.925781 11.925781 27.589844 17.890624 43.253906 17.890624s31.332031-5.964843 43.257812-17.890624c11.554688-11.554688 17.917969-26.914063 17.917969-43.253907 0-16.339843-6.363281-31.703125-17.917969-43.257812-1.6875-1.6875-3.472656-3.269531-5.335937-4.746094l17.796875-108.921875c23.046875 8.164062 44.175781 21.429688 61.976562 39.230469 26.222657 26.222656 42.621094 59.390625 47.429688 95.910156 4.835938 36.734375-2.386719 73.09375-20.898438 105.15625-12.28125 21.371094-4.886718 48.75 16.484376 61.03125 7.003906 4.023437 14.652343 5.9375 22.203124 5.9375 15.488282 0 30.570313-8.046875 38.820313-22.40625 28.011719-48.519531 39.414063-105.808594 32.109375-161.3125zm-415.414062 126.71875c3.289062 5.71875 4.152343 12.378906 2.429687 18.746094-1.71875 6.371093-5.816406 11.691406-11.539063 14.976562-11.808593 6.785157-26.933593 2.699219-33.730468-9.125-19.308594-33.441406-29.933594-70.160156-31.460938-107.933593h49.617188c1.601562 29.199218 10.019531 57.933593 24.683594 83.335937zm-23.386719-117.730469c-.628907 4.78125-1.0625 9.582032-1.316407 14.390625h-49.558593c.308593-6.90625.90625-13.832031 1.816406-20.765625 3.632813-27.582031 12.046875-54.144531 24.734375-78.515625l43.050781 24.859375c-9.5625 18.769532-15.972656 39.105469-18.726562 60.03125zm202.128906-20.683594c-.003906.027344-.011719.058594-.015625.089844l-7.921875 48.492188c-.378906 2.3125-1.976563 3.78125-3.246094 4.601562-2.445312 1.578125-5.710937 2.089844-8.519531 1.335938-2.816406-.753906-5.386719-2.828125-6.710938-5.417969-.691406-1.347656-1.339843-3.414063-.511718-5.609375l17.375-45.929688c.011718-.03125.023437-.0625.039062-.097656l17.476563-46.203125zm24 45.074219c0 10.996094-4.285156 21.335938-12.058594 29.113281-16.054687 16.050782-42.171875 16.050782-58.226562 0-7.777344-7.777343-12.058594-18.117187-12.058594-29.113281 0-10.996093 4.28125-21.335937 12.058594-29.113281 3.367187-3.363281 7.242187-6.078125 11.445312-8.074219l-10.792969 28.53125c-2.671874 7.0625-2.167968 14.808594 1.417969 21.808594 3.882813 7.574219 11.109375 13.410156 19.335938 15.613281 2.535156.683594 5.160156 1.015625 7.792969 1.015625 5.894531 0 11.8125-1.675781 16.753906-4.867187 6.605468-4.269532 10.917968-10.726563 12.132812-18.179688l4.921875-30.105468c4.722657 6.820312 7.277344 14.898437 7.277344 23.371093zm-150.519531-209.398437c30.625-16.046875 64.359375-25.082032 99.34375-26.53125v49.757812c-26.261719 1.378906-51.515625 8.179688-74.464844 19.863282zm163.042968 9c-4.964843-1.328125-10.125 1.316406-11.945312 6.121094l-4.375 11.566406c-8.960938-1.8125-18.105469-2.972656-27.375-3.460938v-49.75c35.128906 1.457032 68.886719 10.558594 99.351562 26.515625l-24.882812 43.097657c-8.21875-4.183594-16.730469-7.746094-25.480469-10.652344l1.988281-12.164063c.828126-5.070312-2.320312-9.941406-7.28125-11.273437zm48.078126 44.125 24.890624-43.113282c14.410157 9.199219 27.929688 20.027344 40.3125 32.410157 12.371094 12.375 23.191407 25.882812 32.382813 40.328125l-43.140625 24.90625c-7.042969-10.808594-15.203125-20.917969-24.382812-30.09375-9.265626-9.265625-19.347657-17.425782-30.0625-24.4375zm64.453124 71.851562 43.136719-24.90625c12.628907 24.234375 20.976563 50.679688 24.648438 78.5625.914062 6.933594 1.511719 13.859375 1.816406 20.765625h-49.558594c-.25-4.804687-.683593-9.605469-1.316406-14.390625-2.753906-20.925781-9.164063-41.261718-18.726563-60.03125zm38.171876 202.375c-6.785157 11.808594-21.914063 15.894532-33.722657 9.109375-11.808593-6.785156-15.894531-21.914062-9.117187-33.707031 14.671875-25.414062 23.089844-54.152344 24.691406-83.355469h49.617188c-1.527344 37.777344-12.15625 74.503907-31.46875 107.953125zm0 0"/><path d="m316.007812 354.992188h-120.015624c-5.523438 0-10.003907 4.480468-10.003907 10.003906v32.003906c0 5.523438 4.480469 10 10.003907 10h120.015624c5.523438 0 10-4.476562 10-10v-32.003906c0-5.523438-4.476562-10.003906-10-10.003906zm-10 32.003906h-100.015624v-12h100.015624zm0 0"/><path d="m108.175781 246.640625c-5.523437 0-10.003906 4.476563-10.003906 10.003906 0 5.523438 4.480469 10 10.003906 10h.234375c5.523438 0 10.003906-4.476562 10.003906-10 0-5.527343-4.480468-10.003906-10.003906-10.003906zm0 0"/><path d="m190.878906 123.835938-.117187-.207032c-2.761719-4.78125-8.878907-6.417968-13.664063-3.65625-4.78125 2.761719-6.417968 8.878906-3.65625 13.660156l.117188.207032c1.851562 3.207031 5.214844 5 8.667968 5 1.699219 0 3.417969-.433594 4.996094-1.34375 4.78125-2.761719 6.421875-8.878906 3.65625-13.660156zm0 0"/><path d="m334.929688 119.988281c-4.785157-2.761719-10.902344-1.125-13.664063 3.660157l-.117187.203124c-2.761719 4.785157-1.125 10.898438 3.65625 13.664063 1.578124.910156 3.296874 1.34375 4.992187 1.34375 3.457031 0 6.820313-1.796875 8.671875-5.003906l.117188-.203125c2.761718-4.785156 1.125-10.898438-3.65625-13.664063zm0 0"/><path d="m403.585938 266.679688h.234374c5.523438 0 10.003907-4.476563 10.003907-10 0-5.527344-4.480469-10.003907-10.003907-10.003907h-.234374c-5.523438 0-10 4.476563-10 10.003907 0 5.523437 4.476562 10 10 10zm0 0"/><path d="m221.230469 417h-.238281c-5.523438 0-10 4.480469-10 10.003906 0 5.523438 4.476562 10 10 10h.238281c5.523437 0 10-4.476562 10-10 0-5.523437-4.476563-10.003906-10-10.003906zm0 0"/><path d="m291.003906 417.003906h-41.039062c-5.523438 0-10.003906 4.476563-10.003906 10 0 5.523438 4.480468 10.003906 10.003906 10.003906h41.039062c5.523438 0 10-4.480468 10-10.003906 0-5.523437-4.476562-10-10-10zm0 0"/></svg>